<?xml version="1.0" standalone="no"?>
<!DOCTYPE svg PUBLIC "-//W3C//DTD SVG 20010904//EN"
 "http://www.w3.org/TR/2001/REC-SVG-20010904/DTD/svg10.dtd">
<svg version="1.0" xmlns="http://www.w3.org/2000/svg"
 width="500.000000pt" height="500.000000pt" viewBox="0 0 500.000000 500.000000"
 preserveAspectRatio="xMidYMid meet">

<g transform="translate(0.000000,500.000000) scale(0.100000,-0.100000)"
fill="#000000" stroke="none">
<path d="M1582 3165 c-75 -17 -152 -52 -206 -92 l-39 -30 -35 23 c-69 47 -165
30 -213 -37 -70 -98 4 -239 126 -239 107 0 182 107 145 206 -13 34 8 60 88
102 91 49 171 65 307 65 312 -2 556 -154 590 -370 6 -37 4 -42 -15 -45 -18 -2
-29 -22 -61 -113 -22 -60 -46 -116 -53 -123 -9 -9 -37 -14 -75 -15 -74 0 -122
23 -254 122 -156 117 -245 151 -392 151 -166 0 -284 -48 -400 -165 -201 -201
-220 -524 -43 -747 43 -55 52 -46 13 12 -94 140 -118 320 -64 483 20 62 24 67
50 67 l29 0 0 -180 0 -180 125 0 125 0 2 178 3 177 173 3 172 2 0 120 0 120
-169 0 c-170 0 -200 6 -170 35 39 35 217 46 322 19 81 -21 125 -44 227 -119
128 -94 162 -109 248 -110 68 0 73 -1 67 -20 -19 -69 -20 -65 17 -65 31 0 37
4 51 40 15 40 15 40 71 40 l55 0 12 -40 c12 -38 14 -40 52 -40 33 0 38 3 32
18 -4 9 -32 87 -63 172 -31 85 -59 157 -62 160 -4 3 -10 28 -14 55 -20 155
-173 292 -391 351 -84 22 -301 28 -383 9z m-285 -120 c26 -18 53 -71 53 -106
0 -36 -31 -88 -65 -109 -65 -40 -156 -15 -189 54 -20 41 -20 67 -3 109 33 79
127 102 204 52z m1071 -472 c11 -33 11 -33 -24 -33 -40 0 -39 -1 -17 45 18 38
25 37 41 -12z"/>
<path d="M1174 3030 c-56 -22 -73 -112 -30 -155 32 -32 69 -40 107 -25 40 17
59 47 59 93 0 71 -68 115 -136 87z"/>
<path d="M1090 2740 l0 -71 31 22 c17 12 53 34 79 48 l48 26 -44 2 c-25 1 -59
11 -79 23 l-35 22 0 -72z"/>
<path d="M1305 2790 c-3 -6 1 -7 9 -4 18 7 21 14 7 14 -6 0 -13 -4 -16 -10z"/>
<path d="M2591 2736 c-53 -29 -67 -106 -28 -152 17 -19 40 -30 82 -39 64 -12
87 -33 69 -63 -12 -18 -70 -28 -111 -17 -13 3 -33 15 -44 26 l-20 20 3 -48 3
-48 50 -13 c70 -17 122 -7 162 33 25 25 33 42 33 68 0 62 -35 90 -142 112 -15
3 -32 14 -38 24 -23 43 50 67 109 36 33 -17 41 -12 41 25 0 19 -7 30 -25 38
-34 16 -114 15 -144 -2z"/>
<path d="M2870 2576 l0 -174 43 -6 c65 -10 142 10 181 47 57 54 67 171 20 242
-27 41 -91 65 -172 65 l-72 0 0 -174z m145 100 c43 -18 55 -42 55 -108 0 -64
-17 -92 -65 -108 -62 -20 -65 -14 -65 115 0 129 2 131 75 101z"/>
<path d="M3268 2735 c-36 -20 -48 -44 -48 -93 0 -50 39 -87 102 -97 57 -10 78
-22 78 -45 0 -43 -106 -56 -154 -19 l-26 20 0 -41 c0 -35 4 -42 28 -51 15 -6
53 -12 84 -12 68 0 103 19 125 71 29 70 -9 124 -101 141 -59 11 -86 33 -70 59
6 9 19 19 29 20 27 6 83 -7 99 -23 12 -12 14 -10 18 21 3 22 -1 39 -10 46 -22
19 -123 21 -154 3z"/>
<path d="M3548 2744 c-5 -4 -8 -83 -8 -176 l0 -168 35 0 35 0 0 66 c0 64 0 65
26 62 21 -2 31 -14 52 -65 26 -61 28 -63 65 -63 20 0 37 2 37 5 0 3 -16 36
-35 74 -30 61 -33 71 -19 82 50 41 54 117 8 160 -22 21 -37 24 -107 27 -45 2
-85 0 -89 -4z m143 -64 c23 -13 25 -53 3 -74 -8 -9 -31 -16 -50 -16 l-34 0 0
50 c0 49 1 50 31 50 17 0 39 -5 50 -10z"/>
<path d="M750 2545 l0 -115 89 0 88 0 32 64 c17 35 52 87 77 115 l46 51 -166
0 -166 0 0 -115z"/>
<path d="M1780 2320 c0 -7 408 -10 1205 -10 797 0 1205 3 1205 10 0 7 -408 10
-1205 10 -797 0 -1205 -3 -1205 -10z"/>
<path d="M2553 2190 c0 -36 2 -50 4 -32 4 28 8 32 34 32 26 0 29 -3 29 -30 0
-16 5 -30 10 -30 6 0 10 27 10 60 0 33 -4 60 -10 60 -5 0 -10 -11 -10 -25 0
-21 -5 -25 -29 -25 -25 0 -30 5 -34 28 -2 15 -4 -2 -4 -38z"/>
<path d="M2677 2232 c-36 -40 -9 -102 44 -102 34 0 49 18 49 56 0 58 -57 86
-93 46z m67 -8 c9 -8 16 -24 16 -34 0 -21 -25 -50 -44 -50 -20 0 -36 22 -36
50 0 46 34 64 64 34z"/>
<path d="M2807 2243 c-18 -18 -5 -45 29 -59 19 -8 34 -20 31 -27 -6 -20 -40
-21 -54 -1 -7 10 -16 15 -19 11 -14 -14 20 -38 50 -35 25 2 32 8 34 30 3 23
-1 28 -29 36 -18 4 -34 13 -37 20 -7 21 28 25 48 7 21 -19 28 -7 8 13 -13 13
-50 16 -61 5z"/>
<path d="M2911 2188 c1 -35 4 -51 6 -35 4 22 9 27 33 27 34 0 53 26 39 52 -6
12 -21 18 -44 18 l-35 0 1 -62z m67 25 c-2 -11 -14 -19 -31 -21 -22 -3 -27 1
-27 17 0 17 6 21 31 21 24 0 30 -4 27 -17z"/>
<path d="M3023 2190 c0 -36 2 -50 4 -32 2 17 2 47 0 65 -2 17 -4 3 -4 -33z"/>
<path d="M3055 2240 c3 -5 13 -10 21 -10 10 0 14 -13 14 -50 0 -27 5 -50 10
-50 6 0 10 23 10 50 0 37 4 50 14 50 8 0 18 5 21 10 4 6 -13 10 -45 10 -32 0
-49 -4 -45 -10z"/>
<path d="M3172 2190 c-11 -33 -17 -60 -12 -60 5 0 12 9 15 20 4 13 15 20 30
20 15 0 26 -7 30 -20 3 -11 10 -20 16 -20 7 0 -21 86 -37 112 -11 18 -21 5
-42 -52z m47 -2 c1 -5 -6 -8 -14 -8 -16 0 -19 9 -8 36 6 16 7 16 14 -2 4 -10
8 -22 8 -26z"/>
<path d="M3270 2190 l0 -60 43 2 c36 1 38 2 10 5 -33 4 -33 5 -33 59 0 30 -4
54 -10 54 -6 0 -10 -27 -10 -60z"/>
<path d="M3377 2243 c-18 -18 -5 -45 29 -59 19 -8 34 -20 31 -27 -6 -20 -40
-21 -54 -1 -7 10 -16 15 -19 11 -14 -14 20 -38 50 -35 25 2 32 8 34 30 3 23
-1 28 -29 36 -18 4 -34 13 -37 20 -7 21 28 25 48 7 21 -19 28 -7 8 13 -13 13
-50 16 -61 5z"/>
</g>
</svg>
